<svg width="16" height="16" viewBox="0 0 16 16" fill="none" xmlns="http://www.w3.org/2000/svg">
<path d="M14.859 5.52011C14.7771 5.56189 12.8286 6.44364 12.8286 8.39867C12.9204 10.6283 15.2875 11.4102 15.3281 11.4102C15.2875 11.452 14.9708 12.4753 14.0324 13.5481C13.2877 14.4721 12.4612 15.4038 11.2061 15.4038C10.0122 15.4038 9.58366 14.7879 8.2061 14.7879C6.72673 14.7879 6.30814 15.4038 5.17548 15.4038C3.92038 15.4038 3.03262 14.4222 2.24735 13.5068C1.22716 12.3087 0.36003 10.4286 0.329418 8.62331C0.308787 7.66669 0.533721 6.72634 1.10471 5.92761C1.91061 4.81254 3.34939 4.0556 4.9206 4.03064C6.12446 3.99754 7.1959 4.70456 7.93059 4.70456C8.63467 4.70456 9.951 4.03064 11.4404 4.03064C12.0832 4.03118 13.7975 4.18908 14.859 5.52011ZM7.82877 3.83964C7.61449 2.96603 8.2061 2.09242 8.75712 1.53516C9.46121 0.861232 10.5732 0.403809 11.5322 0.403809C11.5934 1.27742 11.2054 2.1342 10.512 2.75821C9.88978 3.43213 8.81835 3.93948 7.82877 3.83964Z" fill="black"/>
</svg>
