<svg width="15" height="15" viewBox="0 0 15 15" fill="none" xmlns="http://www.w3.org/2000/svg">
<g clip-path="url(#clip0_2_1193)">
<path d="M14.0633 7.64573C14.0633 7.10615 14.0187 6.7124 13.922 6.30408H7.63477V8.73946H11.3252C11.2508 9.34469 10.849 10.2562 9.95617 10.8686L9.94366 10.9502L11.9316 12.4594L12.0693 12.4728C13.3341 11.328 14.0633 9.64364 14.0633 7.64573Z" fill="#4285F4"/>
<path d="M7.63399 14.0625C9.44199 14.0625 10.9598 13.4791 12.0685 12.4729L9.95539 10.8687C9.38993 11.2551 8.63099 11.5249 7.63399 11.5249C5.86318 11.5249 4.36022 10.3802 3.82445 8.79785L3.74592 8.80439L1.67889 10.3721L1.65186 10.4458C2.75303 12.5895 5.01493 14.0625 7.63399 14.0625Z" fill="#34A853"/>
<path d="M3.82486 8.79792C3.6835 8.38959 3.60168 7.95206 3.60168 7.5C3.60168 7.04789 3.6835 6.6104 3.81742 6.20208L3.81368 6.11511L1.72073 4.52222L1.65226 4.55414C1.19841 5.44373 0.937988 6.44271 0.937988 7.5C0.937988 8.55729 1.19841 9.55621 1.65226 10.4458L3.82486 8.79792Z" fill="#FBBC05"/>
<path d="M7.63403 3.47498C8.89145 3.47498 9.73965 4.00727 10.2233 4.45209L12.1132 2.64375C10.9525 1.58646 9.44204 0.9375 7.63403 0.9375C5.01495 0.9375 2.75304 2.41041 1.65186 4.55414L3.81703 6.20208C4.36023 4.61979 5.8632 3.47498 7.63403 3.47498Z" fill="#EB4335"/>
</g>
<defs>
<clipPath id="clip0_2_1193">
<rect width="15" height="15" fill="white"/>
</clipPath>
</defs>
</svg>
