<svg width="147" height="147" viewBox="0 0 147 147" fill="none" xmlns="http://www.w3.org/2000/svg">
<g filter="url(#filter0_d_17_583)">
<path d="M73.5 0.8125C91.7171 0.8125 109.188 8.0492 122.069 20.9306C134.951 33.812 142.188 51.2829 142.188 69.5C142.188 87.7171 134.951 105.188 122.069 118.069C109.188 130.951 91.7171 138.188 73.5 138.188C55.2829 138.188 37.812 130.951 24.9306 118.069C12.0492 105.188 4.8125 87.7171 4.8125 69.5C4.8125 51.2829 12.0492 33.812 24.9306 20.9306C37.812 8.0492 55.2829 0.8125 73.5 0.8125ZM64.9435 83.0511L49.6851 67.7828C49.1381 67.2358 48.4887 66.8019 47.774 66.5059C47.0593 66.2098 46.2932 66.0574 45.5197 66.0574C44.7461 66.0574 43.9801 66.2098 43.2654 66.5059C42.5507 66.8019 41.9013 67.2358 41.3542 67.7828C40.2495 68.8875 39.6289 70.3859 39.6289 71.9482C39.6289 73.5106 40.2495 75.0089 41.3542 76.1136L60.783 95.5424C61.3285 96.0921 61.9774 96.5285 62.6923 96.8262C63.4072 97.124 64.174 97.2773 64.9484 97.2773C65.7228 97.2773 66.4896 97.124 67.2045 96.8262C67.9194 96.5285 68.5683 96.0921 69.1138 95.5424L109.345 55.3013C109.899 54.7566 110.34 54.1075 110.643 53.3915C110.945 52.6754 111.102 51.9067 111.106 51.1295C111.109 50.3523 110.959 49.5821 110.664 48.8633C110.368 48.1445 109.933 47.4914 109.384 46.9415C108.835 46.3916 108.182 45.9559 107.464 45.6595C106.745 45.3632 105.975 45.2119 105.198 45.2146C104.421 45.2173 103.652 45.3739 102.935 45.6753C102.219 45.9766 101.569 46.4168 101.024 46.9705L64.9435 83.0511Z" fill="#356994"/>
</g>
<defs>
<filter id="filter0_d_17_583" x="0.8125" y="0.8125" width="145.375" height="145.375" filterUnits="userSpaceOnUse" color-interpolation-filters="sRGB">
<feFlood flood-opacity="0" result="BackgroundImageFix"/>
<feColorMatrix in="SourceAlpha" type="matrix" values="0 0 0 0 0 0 0 0 0 0 0 0 0 0 0 0 0 0 127 0" result="hardAlpha"/>
<feOffset dy="4"/>
<feGaussianBlur stdDeviation="2"/>
<feComposite in2="hardAlpha" operator="out"/>
<feColorMatrix type="matrix" values="0 0 0 0 0.207843 0 0 0 0 0.227451 0 0 0 0 0.25098 0 0 0 1 0"/>
<feBlend mode="normal" in2="BackgroundImageFix" result="effect1_dropShadow_17_583"/>
<feBlend mode="normal" in="SourceGraphic" in2="effect1_dropShadow_17_583" result="shape"/>
</filter>
</defs>
</svg>
